<?xml version="1.0" standalone="no"?>
<!DOCTYPE svg PUBLIC "-//W3C//DTD SVG 20010904//EN"
 "http://www.w3.org/TR/2001/REC-SVG-20010904/DTD/svg10.dtd">
<svg version="1.0" xmlns="http://www.w3.org/2000/svg"
 width="1080.000000pt" height="1080.000000pt" viewBox="0 0 1080.000000 1080.000000"
 preserveAspectRatio="xMidYMid meet">

<g transform="translate(0.000000,1080.000000) scale(0.100000,-0.100000)"
fill="#000000" stroke="none">
<path d="M4160 8200 c-146 -19 -330 -53 -400 -74 -25 -8 -74 -22 -110 -31
-232 -64 -613 -258 -827 -421 -48 -37 -144 -114 -153 -124 -3 -3 -38 -35 -79
-70 -245 -216 -528 -618 -664 -945 -340 -819 -275 -1726 179 -2495 168 -285
487 -633 708 -775 68 -43 102 -43 166 -1 46 31 96 123 86 161 -4 15 -57 68
-139 138 -203 175 -354 340 -482 528 -133 195 -261 464 -320 674 -10 33 -23
80 -30 105 -44 153 -75 400 -75 591 0 412 121 869 318 1199 12 19 28 49 37 67
9 17 47 74 83 126 244 346 546 607 912 791 80 40 156 77 170 81 14 4 39 13 55
20 155 68 448 135 685 156 190 17 502 -2 645 -39 22 -6 76 -18 120 -27 78 -17
229 -66 330 -107 74 -30 178 -77 195 -88 8 -6 25 -14 36 -19 49 -21 239 -143
331 -212 128 -97 359 -328 454 -454 127 -169 219 -318 219 -354 l0 -22 -446 1
c-308 1 -453 5 -470 12 -15 7 -35 34 -51 67 -81 173 -210 378 -339 541 -89
111 -329 350 -427 423 -86 65 -121 82 -188 90 -41 6 -52 3 -86 -22 -40 -29
-73 -83 -73 -118 1 -50 40 -103 132 -176 335 -267 585 -598 763 -1012 21 -49
41 -93 44 -96 3 -4 335 -10 737 -14 712 -7 732 -7 775 12 24 11 50 27 58 37
20 24 8 86 -38 194 -161 369 -331 622 -601 892 -270 272 -591 483 -925 611
-33 13 -64 26 -70 30 -12 8 -209 67 -290 86 -85 20 -204 41 -315 57 -103 15
-545 19 -640 6z"/>
<path d="M2450 8183 c-110 -26 -318 -86 -355 -102 -11 -5 -66 -28 -123 -51
-95 -38 -267 -122 -352 -173 -101 -60 -305 -202 -340 -237 -3 -3 -34 -29 -70
-59 -163 -136 -381 -381 -495 -556 -22 -33 -42 -62 -46 -65 -3 -3 -18 -27 -33
-55 -14 -27 -44 -81 -66 -120 -104 -179 -209 -452 -261 -673 -65 -281 -85
-484 -76 -787 13 -410 107 -780 293 -1150 74 -147 78 -152 164 -285 106 -163
214 -295 370 -450 423 -424 931 -684 1545 -791 148 -25 590 -38 725 -20 495
64 811 173 1222 420 285 172 629 506 824 799 31 48 65 98 74 112 10 14 48 85
84 158 39 77 76 137 88 143 16 9 145 10 481 5 252 -3 462 -8 467 -11 18 -11
-1 -47 -126 -235 -109 -164 -303 -377 -479 -527 -106 -90 -311 -221 -473 -303
-150 -76 -344 -148 -537 -201 -107 -29 -131 -47 -144 -110 -19 -89 -15 -125
19 -149 89 -63 138 -69 265 -31 33 10 89 27 125 37 143 39 411 157 575 253
374 216 710 538 957 916 96 147 176 308 263 525 21 52 43 101 48 108 6 8 6 16
1 21 -5 5 -379 12 -831 16 l-822 7 -73 -153 c-118 -246 -200 -379 -344 -559
-98 -123 -299 -325 -399 -401 -223 -170 -534 -339 -740 -402 -27 -8 -80 -24
-117 -35 -195 -61 -540 -107 -743 -98 -427 17 -752 102 -1110 289 -101 53 -94
49 -225 136 -302 201 -564 474 -747 776 -67 111 -70 116 -86 150 -36 75 -95
203 -106 230 -23 54 -91 265 -91 281 0 8 -6 36 -14 62 -47 160 -82 477 -72
662 13 254 50 450 133 710 43 135 64 184 144 345 54 107 215 364 244 390 6 6
27 30 45 55 116 154 340 359 535 492 168 114 304 185 520 273 17 7 55 20 85
30 30 10 71 23 90 30 19 7 81 25 137 40 106 28 188 73 219 120 20 31 11 106
-17 147 -48 66 -107 80 -229 51z"/>
<path d="M2505 5925 c-52 -19 -130 -100 -144 -151 -14 -52 -15 -785 -1 -836
15 -52 67 -117 115 -142 55 -29 189 -35 251 -11 58 22 128 100 143 159 6 25
11 101 11 170 l0 126 -115 0 -114 0 -3 -132 -3 -133 -30 0 -30 0 -3 374 c-1
224 2 379 7 384 5 5 21 7 35 3 l26 -6 0 -135 0 -135 116 0 116 0 -4 153 c-3
132 -6 157 -25 192 -30 56 -80 101 -132 120 -54 19 -163 19 -216 0z"/>
<path d="M4645 5925 c-52 -19 -130 -100 -144 -151 -14 -52 -15 -785 -1 -836
15 -52 67 -117 115 -142 55 -29 189 -35 251 -11 58 22 128 100 143 159 6 25
11 101 11 170 l0 126 -115 0 -114 0 -3 -132 -3 -133 -30 0 -30 0 -3 374 c-1
224 2 379 7 384 5 5 21 7 35 3 l26 -6 0 -135 0 -135 116 0 116 0 -4 153 c-3
132 -6 157 -25 192 -30 56 -80 101 -132 120 -54 19 -163 19 -216 0z"/>
<path d="M8652 5927 c-52 -19 -98 -62 -126 -118 -24 -49 -26 -62 -26 -187 0
-103 4 -142 16 -168 9 -19 72 -84 139 -145 68 -60 126 -117 129 -125 3 -9 6
-55 6 -104 0 -94 -11 -117 -50 -105 -19 6 -20 14 -20 116 l0 109 -110 0 -110
0 0 -122 c0 -108 3 -129 24 -173 44 -95 114 -135 234 -135 93 0 160 28 205 85
46 57 57 105 57 238 0 186 4 178 -213 370 l-77 68 0 99 c0 81 3 99 16 104 34
13 44 -12 44 -110 l0 -94 110 0 110 0 0 113 c0 102 -3 118 -26 165 -30 60 -79
104 -133 121 -49 14 -156 13 -199 -2z"/>
<path d="M9565 5925 c-52 -19 -130 -100 -144 -151 -14 -52 -15 -785 -1 -836
15 -52 67 -117 115 -142 33 -17 58 -21 141 -21 93 0 104 2 142 28 50 32 52 33
52 7 0 -16 7 -20 35 -20 l35 0 0 275 0 276 -132 -3 -133 -3 -3 -62 c-3 -62 -2
-63 23 -63 l25 0 0 -109 c0 -117 -7 -136 -52 -129 l-23 3 -3 377 c-2 360 -1
377 16 383 11 3 27 3 36 -1 14 -5 16 -25 16 -140 l0 -134 116 0 116 0 -4 153
c-3 132 -6 157 -25 193 -29 54 -93 110 -140 123 -53 15 -160 13 -208 -4z"/>
<path d="M2958 5924 c-5 -4 -8 -261 -8 -571 l0 -563 115 0 115 0 0 221 0 220
33 -3 32 -3 6 -215 c3 -118 6 -216 7 -217 1 -2 53 -3 115 -3 l112 0 -3 197
c-3 218 -10 257 -49 304 -22 25 -24 34 -15 48 50 69 56 94 60 224 3 80 0 145
-8 170 -19 69 -71 131 -137 163 -55 27 -66 29 -213 32 -85 2 -158 0 -162 -4z
m276 -190 c14 -5 16 -28 16 -154 0 -157 -1 -160 -51 -160 -18 0 -19 9 -19 160
0 151 1 160 19 160 11 0 26 -3 35 -6z"/>
<path d="M3567 5923 c-4 -3 -7 -260 -7 -570 l0 -563 115 0 115 0 0 570 0 570
-108 0 c-60 0 -112 -3 -115 -7z"/>
<path d="M4055 5918 c-6 -17 -185 -1093 -185 -1113 0 -13 18 -15 114 -15 l115
0 6 48 c3 26 8 64 11 85 l6 37 54 0 54 0 0 -32 c0 -18 3 -57 6 -85 l7 -53 119
0 c118 0 118 0 113 23 -3 12 -45 264 -94 559 -49 295 -92 542 -96 548 -9 15
-224 13 -230 -2z m149 -730 l6 -58 -35 0 c-34 0 -35 1 -35 38 0 33 27 339 31
352 1 3 7 -58 14 -135 7 -77 16 -166 19 -197z"/>
<path d="M5070 5830 l0 -100 75 0 75 0 0 -470 0 -470 115 0 115 0 0 470 0 469
73 3 72 3 0 95 0 95 -262 3 -263 2 0 -100z"/>
<path d="M5667 5923 c-4 -3 -7 -260 -7 -570 l0 -563 115 0 115 0 0 570 0 570
-108 0 c-60 0 -112 -3 -115 -7z"/>
<path d="M5960 5912 c0 -9 41 -264 90 -565 50 -302 90 -550 90 -553 0 -3 55
-3 122 -2 l123 3 91 560 c51 308 90 563 87 568 -2 4 -53 7 -113 7 -60 0 -111
-3 -113 -7 -3 -5 -20 -162 -38 -350 -18 -188 -35 -340 -37 -338 -2 2 -19 158
-38 347 -18 189 -34 344 -34 346 0 1 -52 2 -115 2 -103 0 -115 -2 -115 -18z"/>
<path d="M6637 5924 c-4 -4 -7 -261 -7 -571 l0 -563 225 0 226 0 -3 98 -3 97
-102 3 -103 3 0 134 0 135 75 0 75 0 0 85 0 85 -75 0 -75 0 0 150 0 149 103 3
102 3 0 95 0 95 -216 3 c-118 1 -218 -1 -222 -4z"/>
<path d="M7408 5924 c-5 -4 -8 -261 -8 -571 l0 -563 163 0 c141 0 168 3 207
21 55 25 105 71 133 124 21 39 22 53 25 404 3 401 1 416 -58 491 -18 22 -55
51 -88 67 -54 26 -66 28 -212 31 -85 2 -158 0 -162 -4z m281 -198 c8 -9 11
-117 9 -377 l-3 -364 -32 -3 -33 -3 0 380 0 381 24 0 c13 0 29 -6 35 -14z"/>
<path d="M8007 5924 c-4 -4 -7 -261 -7 -571 l0 -563 225 0 226 0 -3 98 -3 97
-102 3 -103 3 0 134 0 135 75 0 75 0 0 85 0 85 -75 0 -75 0 0 150 0 149 103 3
102 3 0 95 0 95 -216 3 c-118 1 -218 -1 -222 -4z"/>
<path d="M9107 5923 c-4 -3 -7 -260 -7 -570 l0 -563 115 0 115 0 0 570 0 570
-108 0 c-60 0 -112 -3 -115 -7z"/>
<path d="M10017 5924 c-4 -4 -7 -261 -7 -571 l0 -563 100 0 100 0 2 292 3 292
65 -290 66 -289 102 -3 102 -3 0 571 0 571 -97 -3 -98 -3 -5 -290 -5 -290 -60
290 -60 290 -101 3 c-55 1 -103 0 -107 -4z"/>
<path d="M3300 2085 l0 -155 120 0 120 0 0 155 0 155 -120 0 -120 0 0 -155z
m150 0 c0 -84 0 -85 -25 -85 -25 0 -25 1 -25 85 0 84 0 85 25 85 25 0 25 -1
25 -85z"/>
<path d="M3560 2085 l0 -155 50 0 50 0 0 97 0 96 25 -23 c22 -21 25 -32 25
-97 l0 -73 45 0 45 0 0 155 0 155 -45 0 c-40 0 -45 -3 -45 -22 l0 -21 -23 21
c-18 17 -36 22 -75 22 l-52 0 0 -155z"/>
<path d="M3830 2085 l0 -155 120 0 120 0 0 35 0 35 -70 0 c-68 0 -70 1 -70 25
0 20 12 31 68 59 l67 35 -67 1 c-66 0 -68 1 -68 25 0 24 2 25 70 25 l70 0 0
35 0 35 -120 0 -120 0 0 -155z"/>
<path d="M4220 2038 l0 -202 50 49 c49 48 50 51 50 107 l0 58 68 34 67 35 -67
1 c-66 0 -68 1 -68 25 0 24 2 25 70 25 l70 0 0 35 0 35 -120 0 -120 0 0 -202z"/>
<path d="M4490 2085 l0 -155 120 0 120 0 0 155 0 155 -120 0 -120 0 0 -155z
m150 0 c0 -84 0 -85 -25 -85 -25 0 -25 1 -25 85 0 84 0 85 25 85 25 0 25 -1
25 -85z"/>
<path d="M4750 2038 l0 -202 50 49 c49 48 50 51 50 107 0 55 1 58 25 58 24 0
25 -3 25 -60 l0 -60 45 0 45 0 0 62 c0 41 -5 67 -15 78 -14 15 -14 18 0 30 10
9 15 31 15 76 l0 64 -120 0 -120 0 0 -202z m148 110 c-2 -15 -11 -24 -25 -26
-19 -3 -23 1 -23 22 0 21 5 26 26 26 21 0 25 -4 22 -22z"/>
<path d="M5140 2038 l0 -202 50 49 c49 48 50 51 50 107 0 55 1 58 25 58 24 0
25 -3 25 -60 l0 -60 45 0 45 0 0 155 0 155 -120 0 -120 0 0 -202z m148 110
c-2 -15 -11 -24 -25 -26 -19 -3 -23 1 -23 22 0 21 5 26 26 26 21 0 25 -4 22
-22z"/>
<path d="M5410 2085 l0 -155 120 0 120 0 0 60 0 60 -45 0 c-41 0 -45 -2 -45
-25 0 -20 -5 -25 -25 -25 l-25 0 0 120 0 120 -50 0 -50 0 0 -155z"/>
<path d="M5680 2085 l0 -155 120 0 120 0 0 60 0 60 -45 0 c-41 0 -45 -2 -45
-25 0 -20 -5 -25 -25 -25 l-25 0 0 120 0 120 -50 0 -50 0 0 -155z"/>
<path d="M6070 2085 l0 -155 98 0 c90 0 100 2 120 23 20 21 22 34 22 139 0
148 0 148 -138 148 l-102 0 0 -155z m150 0 c0 -84 0 -85 -25 -85 -25 0 -25 1
-25 85 0 84 0 85 25 85 25 0 25 -1 25 -85z"/>
<path d="M6330 2085 l0 -155 120 0 120 0 0 35 0 35 -70 0 c-68 0 -70 1 -70 25
0 20 12 31 68 59 l67 35 -67 1 c-66 0 -68 1 -68 25 0 24 2 25 70 25 l70 0 0
35 0 35 -120 0 -120 0 0 -155z"/>
<path d="M6600 2145 l0 -95 75 0 c73 0 75 -1 75 -25 0 -20 -5 -25 -25 -25 -16
0 -25 6 -25 15 0 11 -12 15 -50 15 l-50 0 0 -50 0 -50 120 0 120 0 0 95 0 95
-70 0 c-68 0 -70 1 -70 25 0 20 5 25 25 25 14 0 25 -4 25 -10 0 -5 20 -10 45
-10 l45 0 0 45 0 45 -120 0 -120 0 0 -95z"/>
<path d="M6870 2038 l0 -202 50 49 50 49 0 153 0 153 -50 0 -50 0 0 -202z"/>
<path d="M6990 2085 l0 -155 120 0 120 0 0 95 0 95 -60 0 -60 0 0 -35 c0 -24
5 -35 15 -35 9 0 15 -9 15 -25 0 -20 -5 -25 -25 -25 -25 0 -25 1 -25 85 l0 85
70 0 70 0 0 35 0 35 -120 0 -120 0 0 -155z"/>
<path d="M7260 2085 l0 -155 50 0 50 0 0 97 0 96 25 -23 c22 -21 25 -32 25
-97 l0 -73 45 0 45 0 0 155 0 155 -45 0 c-40 0 -45 -3 -45 -22 l0 -21 -23 21
c-18 17 -36 22 -75 22 l-52 0 0 -155z"/>
</g>
</svg>
